<svg width="25" height="25" viewBox="0 0 25 25" fill="none" xmlns="
http://www.w3.org/2000/svg">
<path d="M9.02637 17.3442V18.3278C9.02637 19.1104 9.34244 19.861 9.90505 20.4144C10.4677 20.9678 11.2307 21.2786 12.0264 21.2786C12.822 21.2786 13.5851 20.9678 14.1477 20.4144C14.7103 19.861 15.0264 19.1104 15.0264 18.3278V17.3442M10.0264 5.54094C10.0264 5.01921 10.2371 4.51884 10.6122 4.14991C10.9872 3.78099 11.4959 3.57373 12.0264 3.57373C12.5568 3.57373 13.0655 3.78099 13.4406 4.14991C13.8157 4.51884 14.0264 5.01921 14.0264 5.54094C15.1748 6.07507 16.1538 6.90651 16.8584 7.94616C17.5631 8.9858 17.9668 10.1945 18.0264 11.4426V14.3934C18.1016 15.0049 18.3218 15.5905 18.6692 16.103C19.0166 16.6156 19.4814 17.0407 20.0264 17.3442H4.02637C4.57131 17.0407 5.03618 16.6156 5.38355 16.103C5.73093 15.5905 5.95111 15.0049 6.02637 14.3934V11.4426C6.08593 10.1945 6.48967 8.9858 7.19432 7.94616C7.89897 6.90651 8.87796 6.07507 10.0264 5.54094Z" stroke="white" stroke-linecap="round" stroke-linejoin="round"/>
</svg>