<svg width="22" height="22" viewBox="0 0 22 22" fill="none" xmlns="http://www.w3.org/2000/svg">
<g clip-path="url(#clip0_1780_4308)">
<path d="M8.56546 21.9972H5.64087H2.18564C1.58405 21.9972 1.03743 21.7515 0.641612 21.3556C0.24576 20.9598 0 20.4132 0 19.8116V2.18613C0 1.58454 0.24576 1.03791 0.641612 0.6421C1.03746 0.246285 1.58405 0.000488281 2.18564 0.000488281H5.64087H8.56546H12.0207C12.6223 0.000488281 13.1689 0.246249 13.5647 0.6421C13.9605 1.03791 14.2063 1.58454 14.2063 2.18613V4.94872C14.2063 5.21794 13.9868 5.4375 13.7175 5.4375C13.4483 5.4375 13.2288 5.21794 13.2288 4.94872V2.18613C13.2288 1.85445 13.0927 1.55242 12.8735 1.3333C12.6544 1.11413 12.3524 0.978045 12.0207 0.978045H8.56546H5.64087H2.18564C1.85396 0.978045 1.55194 1.11413 1.33281 1.3333C1.11364 1.55246 0.977556 1.85445 0.977556 2.18613V19.8116C0.977556 20.1433 1.11364 20.4453 1.33281 20.6644C1.55197 20.8836 1.85396 21.0197 2.18564 21.0197H5.64087H8.56546H12.0207C12.3524 21.0197 12.6544 20.8836 12.8735 20.6644C13.0927 20.4453 13.2288 20.1433 13.2288 19.8116V17.049C13.2288 16.7798 13.4483 16.5602 13.7175 16.5602C13.9868 16.5602 14.2063 16.7798 14.2063 17.049V19.8116C14.2063 20.4132 13.9606 20.9598 13.5647 21.3556C13.1689 21.7514 12.6223 21.9972 12.0207 21.9972H8.56546Z" fill="#8A8A8A"/>
<path d="M6.49561 11.5015C6.22571 11.5015 6.00684 11.2826 6.00684 11.0127C6.00684 10.7428 6.22571 10.5239 6.49561 10.5239H21.5111C21.781 10.5239 21.9999 10.7428 21.9999 11.0127C21.9999 11.2826 21.781 11.5015 21.5111 11.5015H6.49561Z" fill="#8A8A8A"/>
<path d="M16.1831 6.37482C15.9923 6.18402 15.9923 5.87442 16.1831 5.68363C16.3739 5.49283 16.6835 5.49283 16.8743 5.68363L21.8569 10.6662C22.0477 10.857 22.0477 11.1666 21.8569 11.3574L16.8805 16.334C16.6897 16.5248 16.3801 16.5248 16.1893 16.334C15.9985 16.1432 15.9985 15.8336 16.1893 15.6428L20.8201 11.0118L16.1831 6.37482Z" fill="#8A8A8A"/>
</g>
<defs>
<clipPath id="clip0_1780_4308">
<rect width="22" height="22" fill="white"/>
</clipPath>
</defs>
</svg>
